<?xml version="1.0" standalone="no"?>
<!DOCTYPE svg PUBLIC "-//W3C//DTD SVG 20010904//EN"
 "http://www.w3.org/TR/2001/REC-SVG-20010904/DTD/svg10.dtd">
<svg version="1.0" xmlns="http://www.w3.org/2000/svg"
 width="580.000000pt" height="167.000000pt" viewBox="0 0 580.000000 167.000000"
 preserveAspectRatio="xMidYMid meet">

<g transform="translate(0.000000,167.000000) scale(0.100000,-0.100000)"
fill="#000000" stroke="none">
<path d="M690 1129 c-216 -41 -384 -214 -398 -409 -5 -68 14 -170 28 -153 3 4
14 35 24 68 31 102 89 204 165 289 40 44 147 126 165 126 6 0 -2 -10 -19 -22
-152 -109 -294 -378 -329 -621 -7 -45 -6 -47 17 -47 13 0 64 13 113 29 171 57
246 73 364 79 128 5 126 20 -3 21 -99 1 -188 -17 -355 -73 -72 -25 -132 -43
-132 -40 0 14 61 122 76 135 11 9 42 29 69 45 108 62 208 184 251 306 l13 38
-47 0 -47 0 49 28 c55 30 56 32 84 117 10 33 22 68 26 78 7 15 3 17 -30 16
-22 -1 -59 -5 -84 -10z"/>
<path d="M1272 910 c-56 -35 -66 -105 -19 -148 12 -11 54 -30 94 -42 79 -24
96 -37 91 -72 -7 -52 -121 -48 -146 5 -11 22 -20 27 -48 27 -39 0 -43 -13 -18
-61 40 -78 200 -92 265 -23 18 19 24 37 24 70 0 59 -30 88 -115 110 -89 22
-102 30 -98 61 6 51 98 56 120 8 9 -19 19 -25 45 -25 27 0 33 4 33 21 0 11 -5
29 -11 41 -26 48 -156 65 -217 28z"/>
<path d="M2651 850 c-2 -80 -2 -80 23 -80 26 0 26 1 26 80 0 77 -1 80 -24 80
-22 0 -23 -3 -25 -80z"/>
<path d="M3190 895 l0 -35 55 0 55 0 0 -150 0 -150 35 0 35 0 0 150 0 150 60
0 60 0 0 35 0 35 -150 0 -150 0 0 -35z"/>
<path d="M3898 900 c-4 -28 -3 -30 29 -30 30 0 33 3 33 30 0 26 -3 30 -29 30
-24 0 -29 -5 -33 -30z"/>
<path d="M4423 914 c-104 -45 -124 -241 -33 -318 89 -75 225 -49 266 51 20 47
18 53 -20 53 -28 0 -36 -5 -47 -31 -25 -62 -109 -71 -154 -17 -44 52 -29 179
24 208 39 21 87 12 115 -21 21 -25 32 -30 61 -27 l35 3 -17 35 c-28 53 -75 80
-142 79 -31 0 -71 -7 -88 -15z"/>
<path d="M5248 863 c-2 -31 -7 -39 -25 -41 -33 -5 -31 -42 2 -42 25 0 25 0 25
-98 0 -63 4 -102 12 -110 7 -7 34 -12 60 -12 45 0 48 2 48 25 0 20 -5 25 -25
25 -27 0 -28 3 -28 80 0 87 1 90 28 90 18 0 25 5 25 20 0 15 -7 20 -25 20 -21
0 -25 5 -26 33 -1 17 -1 35 0 40 0 4 -14 7 -33 7 -33 0 -35 -2 -38 -37z"/>
<path d="M1604 811 c-17 -10 -34 -28 -37 -40 -4 -18 -1 -21 27 -21 19 0 38 8
49 20 31 37 94 17 85 -27 -2 -12 -17 -21 -43 -26 -100 -21 -116 -28 -126 -54
-15 -40 -2 -81 31 -98 37 -19 61 -19 108 0 24 10 38 12 40 5 2 -5 18 -10 35
-10 l32 0 -3 115 c-3 109 -4 115 -29 135 -35 27 -125 28 -169 1z m126 -147 c0
-43 -17 -64 -54 -64 -72 0 -72 55 0 77 54 16 54 16 54 -13z"/>
<path d="M1908 814 c-24 -13 -48 -42 -48 -58 0 -16 67 -4 83 14 19 23 46 26
71 7 30 -22 16 -50 -29 -60 -97 -19 -116 -28 -126 -54 -15 -40 -2 -81 31 -98
37 -19 61 -19 108 0 24 10 38 12 40 5 2 -5 18 -10 35 -10 l32 0 -3 115 c-3
109 -4 115 -29 135 -31 24 -124 27 -165 4z m122 -153 c0 -49 -43 -74 -94 -55
-19 7 -21 37 -3 52 10 9 67 28 90 31 4 1 7 -12 7 -28z"/>
<path d="M2256 804 c-25 -26 -26 -26 -26 -5 0 17 -6 21 -35 21 l-35 0 0 -130
0 -130 35 0 35 0 0 73 c0 90 14 119 63 131 32 8 37 13 37 38 0 23 -4 28 -24
28 -13 0 -35 -12 -50 -26z"/>
<path d="M2346 810 c10 -26 84 -243 84 -247 0 -2 19 -3 42 -1 l41 3 43 128 43
127 -34 0 -34 0 -29 -92 -29 -93 -28 92 -28 91 -39 4 c-31 3 -37 1 -32 -12z"/>
<path d="M2807 810 c-24 -19 -28 -28 -25 -64 l3 -41 75 -25 c67 -22 75 -28 75
-50 0 -22 -5 -25 -37 -28 -29 -2 -40 2 -50 17 -9 14 -23 21 -45 21 -37 0 -40
-6 -17 -38 26 -38 70 -54 125 -47 68 10 99 36 99 85 0 43 -20 63 -75 75 -80
17 -112 45 -75 65 28 15 48 12 70 -10 26 -26 70 -27 70 -2 0 35 -37 56 -103
60 -52 3 -66 1 -90 -18z"/>
<path d="M3455 818 c-3 -7 12 -67 33 -133 l39 -120 36 -3 c35 -3 36 -2 51 48
9 28 18 67 22 86 8 42 20 44 28 4 3 -17 13 -55 22 -86 16 -55 16 -55 52 -52
l36 3 38 120 c21 66 38 123 38 128 0 4 -15 7 -33 7 l-34 0 -23 -86 c-25 -96
-28 -95 -55 14 l-19 72 -36 0 -37 0 -18 -85 c-11 -47 -21 -85 -25 -85 -3 0
-16 38 -29 84 -18 67 -27 85 -44 90 -32 8 -37 7 -42 -6z"/>
<path d="M3900 695 l0 -135 30 0 30 0 0 129 c0 108 -3 130 -16 135 -43 16 -44
12 -44 -129z"/>
<path d="M4116 809 c-21 -17 -26 -18 -26 -5 0 11 -9 16 -30 16 l-30 0 0 -130
0 -130 35 0 35 0 0 95 c0 89 1 95 25 111 30 20 63 10 76 -23 5 -13 9 -60 9
-104 l0 -79 35 0 35 0 -3 111 c-3 108 -4 112 -30 135 -36 31 -94 32 -131 3z"/>
<path d="M4764 811 c-17 -10 -34 -28 -37 -40 -4 -18 -1 -21 27 -21 19 0 38 8
49 20 31 37 94 17 85 -27 -2 -11 -17 -20 -43 -26 -97 -20 -112 -27 -125 -57
-31 -74 46 -130 132 -96 27 10 44 12 46 6 2 -5 18 -10 35 -10 l32 0 -3 115
c-3 109 -4 115 -29 135 -35 27 -125 28 -169 1z m126 -147 c0 -46 -17 -64 -60
-64 -31 0 -40 4 -45 21 -9 26 9 44 55 57 50 14 50 15 50 -14z"/>
<path d="M5135 818 c-11 -6 -25 -19 -32 -27 -11 -14 -12 -13 -13 7 0 18 -5 22
-35 22 l-35 0 0 -130 0 -130 35 0 35 0 0 73 c0 90 14 119 63 131 32 8 37 13
37 38 0 31 -19 36 -55 16z"/>
</g>
</svg>
